<svg width="107" height="113" viewBox="0 0 107 113" fill="none" xmlns="http://www.w3.org/2000/svg">
<path fill-rule="evenodd" clip-rule="evenodd" d="M52.7744 112.111H23.2868C22.8078 112.111 22.5676 111.872 22.5676 111.392C22.5676 110.673 23.2868 67.5203 24.006 61.0475C24.4857 56.7322 24.7252 54.0948 24.7252 53.1361L21.1292 56.7322C20.4099 57.4514 1.71048 43.0672 0.991266 42.348C0.272056 41.6288 0.991266 40.9096 1.71048 40.1904C2.42969 39.4711 13.9371 21.4909 19.6907 15.7372C25.4444 9.98352 36.9518 4.22984 38.3902 2.79142L40.5478 0.633789C46.3015 2.07221 50.3773 2.79142 52.7744 2.79142" fill="#343434" fill-opacity="0.05"/>
<path d="M52.7744 112.111H23.2868C22.8078 112.111 22.5676 111.872 22.5676 111.392C22.5676 110.673 23.2868 67.5203 24.006 61.0475C24.4857 56.7322 24.7252 54.0948 24.7252 53.1361L21.1292 56.7322C20.4099 57.4514 1.71048 43.0672 0.991266 42.348C0.272056 41.6288 0.991266 40.9096 1.71048 40.1904C2.42969 39.4711 13.9371 21.4909 19.6907 15.7372C25.4444 9.98352 36.9518 4.22984 38.3902 2.79142L40.5478 0.633789C46.3015 2.07221 50.3773 2.79142 52.7744 2.79142" stroke="#343434" stroke-opacity="0.5" stroke-width="0.71921" stroke-linejoin="round"/>
<path fill-rule="evenodd" clip-rule="evenodd" d="M52.7744 112.111H83.7005C84.1802 112.111 84.4197 111.872 84.4197 111.392C84.4197 110.673 83.7005 67.5203 82.9812 61.0475C82.5023 56.7322 82.262 54.0948 82.262 53.1361L85.8581 56.7322C86.5773 57.4514 105.277 43.0672 105.996 42.348C106.715 41.6288 105.996 40.9096 105.277 40.1904C104.558 39.4711 93.0502 21.4909 87.2965 15.7372C81.5428 9.98352 70.0355 4.22984 68.597 2.79142L66.4394 0.633789C60.6857 2.07221 56.6107 2.79142 54.2128 2.79142H52.7744" fill="#343434" fill-opacity="0.05"/>
<path d="M52.7744 112.111H83.7005C84.1802 112.111 84.4197 111.872 84.4197 111.392C84.4197 110.673 83.7005 67.5203 82.9812 61.0475C82.5023 56.7322 82.262 54.0948 82.262 53.1361L85.8581 56.7322C86.5773 57.4514 105.277 43.0672 105.996 42.348C106.715 41.6288 105.996 40.9096 105.277 40.1904C104.558 39.4711 93.0502 21.4909 87.2965 15.7372C81.5428 9.98352 70.0355 4.22984 68.597 2.79142L66.4394 0.633789C60.6857 2.07221 56.6107 2.79142 54.2128 2.79142H52.7744" stroke="#343434" stroke-opacity="0.5" stroke-width="0.71921" stroke-linejoin="round"/>
<path opacity="0.15" fill-rule="evenodd" clip-rule="evenodd" d="M36.2944 11.4219H69.3781C73.3503 11.4219 76.5702 14.6418 76.5702 18.614V97.0079C76.5702 100.98 73.3503 104.2 69.3781 104.2H36.2944C32.3222 104.2 29.1023 100.98 29.1023 97.0079V18.614C29.1023 14.6418 32.3222 11.4219 36.2944 11.4219Z" fill="#333333"/>
</svg>
