<svg width="107" height="113" viewBox="0 0 107 113" fill="none" xmlns="http://www.w3.org/2000/svg">
<path fill-rule="evenodd" clip-rule="evenodd" d="M52.6421 112.471H23.1394C22.6602 112.471 22.4198 112.232 22.4198 111.752C22.4198 111.032 23.1394 67.8423 23.859 61.3638C24.3389 57.0449 24.5786 54.4053 24.5786 53.4457L20.9807 57.0449C20.2611 57.7647 1.55206 43.3682 0.832483 42.6484C0.112905 41.9285 0.832483 41.2087 1.55206 40.4889C2.27164 39.7691 13.7849 21.7734 19.5415 16.0148C25.2981 10.2562 36.8114 4.49757 38.2506 3.05792L40.4093 0.898438C46.1659 2.33809 50.2438 3.05792 52.6421 3.05792" fill="#343434" fill-opacity="0.05"/>
<path d="M52.6421 112.471H23.1394C22.6602 112.471 22.4198 112.232 22.4198 111.752C22.4198 111.032 23.1394 67.8423 23.859 61.3638C24.3389 57.0449 24.5786 54.4053 24.5786 53.4457L20.9807 57.0449C20.2611 57.7647 1.55206 43.3682 0.832483 42.6484C0.112905 41.9285 0.832483 41.2087 1.55206 40.4889C2.27164 39.7691 13.7849 21.7734 19.5415 16.0148C25.2981 10.2562 36.8114 4.49757 38.2506 3.05792L40.4093 0.898438C46.1659 2.33809 50.2438 3.05792 52.6421 3.05792" stroke="#343434" stroke-opacity="0.5" stroke-width="0.96592" stroke-linejoin="round"/>
<path fill-rule="evenodd" clip-rule="evenodd" d="M52.6421 112.471H83.584C84.0639 112.471 84.3035 112.232 84.3035 111.752C84.3035 111.032 83.584 67.8423 82.8644 61.3638C82.3851 57.0449 82.1448 54.4053 82.1448 53.4457L85.7427 57.0449C86.4623 57.7647 105.171 43.3682 105.891 42.6484C106.61 41.9285 105.891 41.2087 105.171 40.4889C104.452 39.7691 92.9385 21.7734 87.1819 16.0148C81.4252 10.2562 69.912 4.49757 68.4728 3.05792L66.3141 0.898438C60.5575 2.33809 56.4803 3.05792 54.0812 3.05792H52.6421" fill="#343434" fill-opacity="0.05"/>
<path d="M52.6421 112.471H83.584C84.0639 112.471 84.3035 112.232 84.3035 111.752C84.3035 111.032 83.584 67.8423 82.8644 61.3638C82.3851 57.0449 82.1448 54.4053 82.1448 53.4457L85.7427 57.0449C86.4623 57.7647 105.171 43.3682 105.891 42.6484C106.61 41.9285 105.891 41.2087 105.171 40.4889C104.452 39.7691 92.9385 21.7734 87.1818 16.0148C81.4252 10.2562 69.912 4.49757 68.4728 3.05792L66.3141 0.898438C60.5575 2.33809 56.4803 3.05792 54.0812 3.05792H52.6421" stroke="#343434" stroke-opacity="0.5" stroke-width="0.96592" stroke-linejoin="round"/>
<path d="M40.4092 0.898438C42.3283 10.4959 46.6458 15.295 53.3616 15.295C60.0781 15.295 64.3956 10.4959 66.314 0.898438" stroke="#343434" stroke-opacity="0.5" stroke-width="0.96592"/>
<path opacity="0.15" fill-rule="evenodd" clip-rule="evenodd" d="M36.8733 21.7734H69.9739C73.9481 21.7734 77.1697 24.9961 77.1697 28.9717V97.3552C77.1697 101.331 73.9481 104.553 69.9739 104.553H36.8733C32.899 104.553 29.6775 101.331 29.6775 97.3552V28.9717C29.6775 24.9961 32.899 21.7734 36.8733 21.7734Z" fill="#333333"/>
</svg>
