<svg width="109" height="114" viewBox="0 0 109 114" fill="none" xmlns="http://www.w3.org/2000/svg">
<g clip-path="url(#clip0_429_3796)">
<path fill-rule="evenodd" clip-rule="evenodd" d="M55.3375 113.109H84.8504C85.3298 113.109 85.5702 112.869 85.5702 112.389C85.5702 111.67 84.8504 68.48 84.1306 62.0015C83.6504 57.6826 83.4107 55.043 83.4107 54.0834L87.0099 57.6826C87.7297 58.4024 106.445 44.0059 107.165 43.286C107.885 42.5662 107.165 41.8464 106.445 41.1266C105.725 40.4067 94.2081 22.4111 88.4495 16.6525C82.6909 10.8939 71.1737 5.13526 69.734 3.69561L67.5746 1.53613C61.8159 2.97579 57.7367 3.69561 55.3375 3.69561M55.3375 113.109H24.385C23.9049 113.109 23.6652 112.869 23.6652 112.389C23.6652 111.67 24.385 68.48 25.1048 62.0015C25.5842 57.6826 25.8246 55.043 25.8246 54.0834L22.2255 57.6826C21.5057 58.4024 2.7902 44.0059 2.07038 43.286C1.35055 42.5662 2.07038 41.8464 2.7902 41.1266C3.51003 40.4067 15.0272 22.4111 20.7859 16.6525C26.5445 10.8939 38.0617 5.13526 39.5013 3.69561L41.6608 1.53613C47.4194 2.97579 51.498 3.69561 53.8979 3.69561H55.3375" fill="#343434" fill-opacity="0.05"/>
<path d="M55.3375 113.109H84.8504C85.3298 113.109 85.5702 112.869 85.5702 112.389C85.5702 111.67 84.8504 68.48 84.1306 62.0015C83.6504 57.6826 83.4107 55.043 83.4107 54.0834L87.0099 57.6826C87.7297 58.4024 106.445 44.0059 107.165 43.286C107.885 42.5662 107.165 41.8464 106.445 41.1266C105.725 40.4067 94.2081 22.4111 88.4495 16.6525C82.6909 10.8939 71.1737 5.13526 69.734 3.69561L67.5746 1.53613C61.8159 2.97579 57.7367 3.69561 55.3375 3.69561H53.8979C51.498 3.69561 47.4194 2.97579 41.6608 1.53613L39.5013 3.69561C38.0617 5.13526 26.5445 10.8939 20.7859 16.6525C15.0272 22.4111 3.51003 40.4067 2.7902 41.1266C2.07038 41.8464 1.35055 42.5662 2.07038 43.286C2.7902 44.0059 21.5057 58.4024 22.2255 57.6826L25.8246 54.0834C25.8246 55.043 25.5842 57.6826 25.1048 62.0015C24.385 68.48 23.6652 111.67 23.6652 112.389C23.6652 112.869 23.9049 113.109 24.385 113.109H55.3375Z" stroke="#343434" stroke-opacity="0.5" stroke-width="0.719826" stroke-linejoin="round"/>
<path d="M67.5744 1.53613C65.6546 11.1336 61.3357 15.9327 54.6175 15.9327C47.8987 15.9327 43.5797 11.1336 41.6606 1.53613" stroke="#343434" stroke-opacity="0.5" stroke-width="0.719826"/>
<path opacity="0.15" fill-rule="evenodd" clip-rule="evenodd" d="M86.4641 23.5936L86.9535 51.4041C86.9582 51.6673 87.0349 51.9243 87.1755 52.147C87.316 52.3697 87.5149 52.5496 87.7506 52.6671C87.9863 52.7846 88.2496 52.8352 88.5121 52.8134C88.7745 52.7916 89.0259 52.6983 89.239 52.5435L102.143 43.1678C102.451 42.9434 102.659 42.6056 102.718 42.2286C102.778 41.8516 102.686 41.4662 102.461 41.1573L89.0677 22.7226C88.8876 22.4751 88.6335 22.2915 88.342 22.1983C88.0505 22.1051 87.737 22.1072 87.4468 22.2043C87.1566 22.3013 86.9049 22.4883 86.7282 22.7382C86.5515 22.988 86.4589 23.2876 86.4641 23.5936Z" fill="#333333"/>
</g>
<defs>
<clipPath id="clip0_429_3796">
<rect width="107.254" height="113.013" fill="white" transform="translate(0.928711 0.816406)"/>
</clipPath>
</defs>
</svg>
