<svg width="77" height="17" viewBox="0 0 77 17" fill="none" xmlns="http://www.w3.org/2000/svg">
<path fill-rule="evenodd" clip-rule="evenodd" d="M66.2 0.773H70.195V16.227H66.2L55.928 5.657V16.227H51.933V0.773H55.928L66.2 11.343V0.773ZM38.236 3.863C34.06 3.863 30.532 5.987 30.532 8.5C30.532 11.013 34.06 13.136 38.236 13.136C42.413 13.136 45.941 11.013 45.941 8.5C45.941 5.987 42.413 3.864 38.236 3.864V3.863ZM38.236 17C31.676 17 26.537 13.266 26.537 8.5C26.537 3.734 31.677 0 38.237 0C44.797 0 49.936 3.734 49.936 8.5C49.936 13.266 44.796 17 38.236 17ZM23.773 12.025C24.24 13.231 24.945 14.348 25.843 15.349C23.903 16.389 21.483 16.999 18.833 16.999C12.273 16.999 7.133 13.266 7.133 8.5C7.133 3.734 12.273 0 18.833 0C21.483 0 23.903 0.61 25.843 1.651C24.945 2.651 24.24 3.769 23.773 4.975C22.424 4.286 20.693 3.864 18.833 3.864C14.657 3.864 11.129 5.987 11.129 8.5C11.129 11.013 14.657 13.136 18.833 13.136C20.693 13.136 22.424 12.714 23.773 12.025ZM0 16.227V0.773H4.566V16.227H0ZM74.493 12.183C73.387 12.183 72.487 13.073 72.487 14.167C72.487 15.26 73.387 16.15 74.493 16.15C75.599 16.15 76.499 15.26 76.499 14.167C76.499 13.073 75.599 12.183 74.493 12.183ZM74.493 16.646C73.111 16.646 71.986 15.534 71.986 14.166C71.986 12.8 73.111 11.687 74.493 11.687C75.875 11.687 77 12.8 77 14.167C77 15.534 75.875 16.646 74.493 16.646Z" fill="white"/>
<path fill-rule="evenodd" clip-rule="evenodd" d="M74.6229 14.0732C74.8999 14.0732 75.0229 13.9632 75.0229 13.7832C75.0229 13.5992 74.8929 13.4902 74.6069 13.4902H74.0659V14.0732H74.6229ZM73.5059 12.9482H74.7149C75.2789 12.9482 75.6039 13.2482 75.6039 13.7542C75.6039 14.0762 75.4679 14.2822 75.2219 14.3892C75.3949 14.4402 75.4839 14.5572 75.5159 14.7722C75.5739 15.1302 75.5419 15.2142 75.6499 15.4592V15.4942H75.0529C74.9909 15.3462 74.9659 15.1502 74.9329 14.9242C74.8899 14.6272 74.8639 14.5602 74.5649 14.5602H74.0649V15.4942H73.5049L73.5059 12.9482Z" fill="white"/>
</svg>
