<svg width="109" height="114" viewBox="0 0 109 114" fill="none" xmlns="http://www.w3.org/2000/svg">
<g clip-path="url(#clip0_429_3808)">
<path fill-rule="evenodd" clip-rule="evenodd" d="M53.7738 113.11H24.261C23.7816 113.11 23.5411 112.87 23.5411 112.39C23.5411 111.671 24.261 68.4809 24.9808 62.0025C25.4609 57.6835 25.7006 55.0439 25.7006 54.0844L22.1015 57.6835C21.3817 58.4034 2.66618 44.0069 1.94636 43.287C1.22653 42.5672 1.94636 41.8474 2.66618 41.1275C3.38601 40.4077 14.9032 22.4121 20.6618 16.6535C26.4204 10.8948 37.9377 5.13624 39.3773 3.69659L41.5368 1.53711C47.2954 2.97676 51.3747 3.69659 53.7738 3.69659" fill="#343434" fill-opacity="0.05"/>
<path d="M53.7738 113.11H24.261C23.7816 113.11 23.5411 112.87 23.5411 112.39C23.5411 111.671 24.261 68.4809 24.9808 62.0025C25.4609 57.6835 25.7006 55.0439 25.7006 54.0844L22.1015 57.6835C21.3817 58.4034 2.66618 44.0068 1.94636 43.287C1.22653 42.5672 1.94636 41.8474 2.66618 41.1275C3.38601 40.4077 14.9032 22.4121 20.6618 16.6535C26.4204 10.8948 37.9377 5.13624 39.3773 3.69659L41.5368 1.53711C47.2954 2.97676 51.3747 3.69659 53.7738 3.69659" stroke="#343434" stroke-opacity="0.5" stroke-width="0.719826" stroke-linejoin="round"/>
<path fill-rule="evenodd" clip-rule="evenodd" d="M53.7737 113.11H84.7262C85.2063 113.11 85.446 112.87 85.446 112.39C85.446 111.671 84.7262 68.4809 84.0064 62.0025C83.527 57.6835 83.2866 55.0439 83.2866 54.0844L86.8857 57.6835C87.6055 58.4034 106.321 44.0069 107.041 43.287C107.761 42.5672 107.041 41.8474 106.321 41.1275C105.601 40.4077 94.0839 22.4121 88.3253 16.6535C82.5667 10.8948 71.0495 5.13624 69.6099 3.69659L67.4504 1.53711C61.6918 2.97676 57.6132 3.69659 55.2133 3.69659H53.7737" fill="#343434" fill-opacity="0.05"/>
<path d="M53.7737 113.11H84.7262C85.2063 113.11 85.446 112.87 85.446 112.39C85.446 111.671 84.7262 68.4809 84.0064 62.0025C83.527 57.6835 83.2866 55.0439 83.2866 54.0844L86.8857 57.6835C87.6055 58.4034 106.321 44.0068 107.041 43.287C107.761 42.5672 107.041 41.8474 106.321 41.1275C105.601 40.4077 94.0839 22.4121 88.3253 16.6535C82.5667 10.8948 71.0495 5.13624 69.6099 3.69659L67.4504 1.53711C61.6918 2.97676 57.6132 3.69659 55.2133 3.69659H53.7737" stroke="#343434" stroke-opacity="0.5" stroke-width="0.719826" stroke-linejoin="round"/>
<path d="M41.5369 1.53711C43.4566 11.1346 47.7756 15.9336 54.4937 15.9336C61.2126 15.9336 65.5315 11.1346 67.4506 1.53711" stroke="#343434" stroke-opacity="0.5" stroke-width="0.719826"/>
<path opacity="0.15" fill-rule="evenodd" clip-rule="evenodd" d="M22.9725 22.8006L22.483 50.6111C22.4783 50.8744 22.4016 51.1313 22.2611 51.354C22.1205 51.5767 21.9216 51.7566 21.6859 51.8741C21.4503 51.9916 21.1869 52.0422 20.9245 52.0204C20.662 51.9987 20.4106 51.9053 20.1975 51.7506L7.29394 42.3748C6.9851 42.1505 6.77802 41.8126 6.71822 41.4356C6.65842 41.0586 6.7508 40.6733 6.97505 40.3644L20.3689 21.9296C20.5489 21.6822 20.8031 21.4985 21.0945 21.4053C21.386 21.3121 21.6996 21.3142 21.9897 21.4113C22.2799 21.5084 22.5316 21.6954 22.7084 21.9452C22.8851 22.195 22.9776 22.4946 22.9725 22.8006Z" fill="#333333"/>
</g>
<defs>
<clipPath id="clip0_429_3808">
<rect width="107.254" height="113.013" fill="white" transform="translate(0.928711 0.816406)"/>
</clipPath>
</defs>
</svg>
