<svg width="77" height="17" xmlns="http://www.w3.org/2000/svg"><g fill-rule="evenodd"><path d="M66.2.773h3.995v15.454H66.2L55.928 5.657v10.57h-3.995V.773h3.995L66.2 11.343V.774zm-27.964 3.09c-4.176 0-7.704 2.124-7.704 4.637 0 2.513 3.528 4.636 7.704 4.636 4.177 0 7.705-2.123 7.705-4.636s-3.528-4.636-7.705-4.636zm0 13.137c-6.56 0-11.699-3.734-11.699-8.5s5.14-8.5 11.7-8.5 11.699 3.734 11.699 8.5-5.14 8.5-11.7 8.5zm-14.463-4.975c.467 1.206 1.172 2.323 2.07 3.324-1.94 1.04-4.36 1.65-7.01 1.65-6.56 0-11.7-3.733-11.7-8.499s5.14-8.5 11.7-8.5c2.65 0 5.07.61 7.01 1.651-.898 1-1.603 2.118-2.07 3.324-1.349-.689-3.08-1.111-4.94-1.111-4.176 0-7.704 2.123-7.704 4.636s3.528 4.636 7.704 4.636c1.86 0 3.591-.422 4.94-1.111zM0 16.227V.773h4.566v15.454H0zm74.493-4.044c-1.106 0-2.006.89-2.006 1.984 0 1.093.9 1.983 2.006 1.983 1.106 0 2.006-.89 2.006-1.983 0-1.094-.9-1.984-2.006-1.984m0 4.463c-1.382 0-2.507-1.112-2.507-2.48 0-1.366 1.125-2.479 2.507-2.479 1.382 0 2.507 1.113 2.507 2.48s-1.125 2.479-2.507 2.479"></path><path d="M74.623 14.073c.277 0 .4-.11.4-.29 0-.184-.13-.293-.416-.293h-.541v.583h.557zm-1.117-1.125h1.209c.564 0 .889.3.889.806 0 .322-.136.528-.382.635.173.051.262.168.294.383.058.358.026.442.134.687v.035h-.597c-.062-.148-.087-.344-.12-.57-.043-.297-.069-.364-.368-.364h-.5v.934h-.56v-2.546z"></path></g></svg>